<svg width="483" height="136" viewBox="0 0 483 136" fill="#fff" xmlns="http://www.w3.org/2000/svg">
    <path d="M380.035 1.35078H400.334L462.702 34.1607V1.35078H483V101.903H462.702V55.7766L400.334 23.1597V101.903H380.035V1.35078Z"/>
    <path d="M340.359 1.35078H360.786V101.903H340.359V1.35078Z"/>
    <path d="M218.212 1.35078H238.51L300.878 34.1607V1.35078H321.176V101.903H300.878V55.7766L238.51 23.1597V101.903H218.212V1.35078Z"/>
    <path d="M178.536 1.35078H198.962V101.903H178.536V1.35078Z"/>
    <path d="M50.625 51.3378C50.625 43.7465 52.0124 36.7985 54.7872 30.4939C57.5619 24.1892 61.4466 18.7853 66.4411 14.282C71.4784 9.73575 77.4975 6.21887 84.4984 3.73132C91.542 1.24377 99.3326 0 107.87 0C116.365 0 124.135 1.24377 131.178 3.73132C138.222 6.21887 144.241 9.73575 149.236 14.282C154.273 18.7853 158.179 24.1892 160.954 30.4939C163.728 36.7985 165.116 43.7465 165.116 51.3378C165.116 58.972 163.728 65.9843 160.954 72.3747C158.179 78.7223 154.273 84.1906 149.236 88.7797C144.241 93.3688 138.222 96.95 131.178 99.5233C124.135 102.054 116.365 103.319 107.87 103.319C99.3326 103.319 91.542 102.054 84.4984 99.5233C77.4975 96.95 71.4784 93.3688 66.4411 88.7797C61.4466 84.1906 57.5619 78.7223 54.7872 72.3747C52.0124 65.9843 50.625 58.972 50.625 51.3378ZM70.9234 51.3378C70.9234 56.5274 71.8412 61.2022 73.6768 65.3624C75.5551 69.5226 78.1378 73.0824 81.4248 76.0417C84.7545 78.9582 88.6605 81.2098 93.1428 82.7967C97.6678 84.3836 102.577 85.177 107.87 85.177C113.164 85.177 118.052 84.3836 122.534 82.7967C127.059 81.2098 130.965 78.9582 134.252 76.0417C137.539 73.0824 140.122 69.5226 142 65.3624C143.878 61.2022 144.817 56.5274 144.817 51.3378C144.817 46.1483 143.878 41.4949 142 37.3775C140.122 33.2602 137.539 29.7862 134.252 26.9556C130.965 24.082 127.059 21.8947 122.534 20.3936C118.052 18.8925 113.164 18.1419 107.87 18.1419C102.577 18.1419 97.6678 18.8925 93.1428 20.3936C88.6605 21.8947 84.7545 24.082 81.4248 26.9556C78.1378 29.7862 75.5551 33.2602 73.6768 37.3775C71.8412 41.4949 70.9234 46.1483 70.9234 51.3378Z"/>
    <path d="M0 118.566C2.94551 116.764 5.46413 114.877 7.55587 112.904C9.6903 110.932 11.4405 108.744 12.8066 106.342C14.1726 103.984 15.1758 101.346 15.8161 98.4294C16.4564 95.4701 16.7766 92.1248 16.7766 88.3935V1.35078H37.075V84.7265C37.075 89.1869 37.0921 92.2083 36.4987 96.9498C36.0031 100.91 35.4742 103.941 34.5777 106.986C33.7239 110.074 32.55 112.904 31.0559 115.478C29.6045 118.051 27.7902 120.496 25.6131 122.812C23.4787 125.128 20.9387 127.358 17.9932 129.502C15.0904 131.647 11.718 133.813 7.87604 136L0 118.566Z"/>
</svg>
